<?xml version="1.0" encoding="UTF-8" standalone="no"?>
<!-- Created with Inkscape (http://www.inkscape.org/) -->

<svg
   width="35.250233mm"
   height="65.251312mm"
   viewBox="0 0 35.250233 65.251312"
   version="1.1"
   id="svg5"
   xmlns="http://www.w3.org/2000/svg"
   xmlns:svg="http://www.w3.org/2000/svg">
  <defs
     id="defs2" />
  <g
     id="g501"
     style="display:inline"
     transform="translate(-910.26603,-582.31321)">
    <path
       d="m 910.3914,629.93925 c 0,3.29015 0.91825,6.36173 2.49727,8.99084 l 2.50243,-8.98955 c 0,-2.9e-4 0,-8.3e-4 0,-0.002 0,-0.002 4.3e-4,-0.004 4.3e-4,-0.005 8.4e-4,-4.99741 1.16641,-9.99243 3.49677,-14.9853 -0.005,-0.003 -0.009,-0.005 -0.0134,-0.008 -0.64968,0.39056 -1.25876,0.83038 -1.84398,1.29407 -0.0918,0.0727 -0.18672,0.14214 -0.2769,0.2166 -6.3e-4,5.2e-4 -8.3e-4,8.4e-4 -0.002,0.002 -0.56531,0.46686 -1.09839,0.96578 -1.59637,1.49474 -0.0985,0.10461 -0.18674,0.21739 -0.2825,0.32427 -0.005,0.006 -0.0119,0.0142 -0.0181,0.0211 -0.38957,0.43622 -0.7558,0.89049 -1.09856,1.36167 -0.0429,0.0589 -0.0849,0.1184 -0.12704,0.17785 -0.0945,0.13307 -0.18609,0.26816 -0.2769,0.40395 -0.31017,0.4649 -0.59749,0.94402 -0.8617,1.43617 -0.0912,0.16953 -0.18816,0.33532 -0.27389,0.50815 -0.203,0.41004 -0.38112,0.83204 -0.55165,1.25746 -0.0738,0.18399 -0.15668,0.36334 -0.22435,0.55036 -0.16697,0.46143 -0.3026,0.93493 -0.43064,1.41075 -0.0452,0.16847 -0.1027,0.33169 -0.14297,0.50213 -0.12063,0.50852 -0.20453,1.02751 -0.27948,1.54857 -0.0214,0.14969 -0.0574,0.29438 -0.0749,0.44528 -0.0792,0.67379 -0.12187,1.35536 -0.12187,2.04338 z"
       style="display:inline;fill:#000000;fill-opacity:1;stroke:#000000;stroke-width:0.25;stroke-linecap:square;stroke-dasharray:none;stroke-opacity:1"
       id="path133-9-5-25" />
    <path
       d="m 936.59911,615.12233 c -1.49871,0.92899 -2.63564,2.12961 -3.49807,3.45112 4.30098,1.97472 7.28792,6.31895 7.28983,11.36106 -8.3e-4,-4.99741 -1.16641,-9.99244 -3.49677,-14.98531 -0.0977,0.0587 -0.19606,0.11626 -0.29499,0.17313 z"
       style="display:inline;fill:#000000;fill-opacity:1;stroke:#000000;stroke-width:0.25;stroke-linecap:square;stroke-dasharray:none;stroke-opacity:1"
       id="path134-3-1-0" />
    <path
       d="m 940.3913,629.94097 2.50243,8.98912 c 0.11743,-0.19551 0.22772,-0.39562 0.33762,-0.596 0.16128,-0.29406 0.31536,-0.59256 0.45993,-0.89658 0.10287,-0.21637 0.2017,-0.43471 0.29584,-0.65586 0.13167,-0.30929 0.25197,-0.6241 0.36604,-0.94223 5.2e-4,-0.002 8.4e-4,-0.003 0.002,-0.005 0.0795,-0.22192 0.15926,-0.44367 0.22996,-0.66964 0.1051,-0.33599 0.19358,-0.67883 0.27862,-1.02319 0.0544,-0.22041 0.11421,-0.43872 0.1602,-0.66233 0.079,-0.38436 0.13567,-0.7765 0.18905,-1.1696 0.026,-0.19189 0.0629,-0.38024 0.0827,-0.57405 0.0602,-0.58985 0.0955,-1.18745 0.0956,-1.79318 0,-0.002 0,-0.003 0,-0.005 v -0.003 c -1.1e-4,-0.68433 -0.0543,-1.36021 -0.13264,-2.03046 -0.0154,-0.13081 -0.0351,-0.26045 -0.0534,-0.39058 -0.0141,-0.10161 -0.0351,-0.20085 -0.0508,-0.30188 -0.0817,-0.51698 -0.17649,-1.03064 -0.30316,-1.53479 -0.0533,-0.21245 -0.11822,-0.41987 -0.17915,-0.62915 -0.13826,-0.4742 -0.29267,-0.94219 -0.46983,-1.40131 -0.0799,-0.20687 -0.16276,-0.41195 -0.25019,-0.61494 -0.19604,-0.4557 -0.41444,-0.90068 -0.64811,-1.33756 -0.0986,-0.1839 -0.19224,-0.3709 -0.29714,-0.55079 -0.27683,-0.47578 -0.58182,-0.93461 -0.90262,-1.38277 -0.0635,-0.0887 -0.11997,-0.18259 -0.18517,-0.27002 -0.0651,-0.0874 -0.13611,-0.17044 -0.20283,-0.25665 -0.2786,-0.35993 -0.58025,-0.70224 -0.88712,-1.04042 -0.39497,-0.43482 -0.81712,-0.84272 -1.25358,-1.23593 -0.19836,-0.1786 -0.38583,-0.36702 -0.59299,-0.537 -0.6055,-0.49741 -1.24385,-0.95575 -1.91331,-1.36943 -0.0562,-0.0346 -0.10486,-0.0779 -0.16149,-0.11197 -0.005,0.003 -0.009,0.005 -0.0133,0.008 2.33136,4.99501 3.49716,9.99219 3.4972,14.99176 z"
       style="display:inline;fill:#000000;fill-opacity:1;stroke:#000000;stroke-width:0.25;stroke-linecap:square;stroke-dasharray:none;stroke-opacity:1"
       id="path135-8-4-7" />
    <path
       d="m 910.3914,629.93925 c 0,-0.69167 0.0438,-1.37264 0.12187,-2.04337 0.0176,-0.1499 0.0535,-0.29497 0.0749,-0.44399 0.0747,-0.52357 0.15991,-1.04316 0.2799,-1.55072 0.0398,-0.16807 0.0965,-0.33003 0.14125,-0.49653 0.12844,-0.47894 0.26481,-0.95371 0.43193,-1.4155 0.0676,-0.18679 0.15055,-0.3662 0.22436,-0.55035 0.17107,-0.42643 0.34875,-0.8484 0.55164,-1.25746 0.12728,-0.25711 0.2677,-0.50619 0.40739,-0.75664 0.14384,-0.25729 0.28301,-0.51659 0.43924,-0.76567 0.11009,-0.17588 0.22993,-0.34482 0.34624,-0.51675 0.10268,-0.1518 0.2082,-0.30012 0.31566,-0.44872 0.11713,-0.16165 0.22681,-0.32835 0.34925,-0.48577 0.24546,-0.3161 0.51297,-0.61489 0.78031,-0.91424 0.002,-0.002 0.004,-0.005 0.005,-0.005 0.0919,-0.10277 0.17347,-0.2128 0.26785,-0.3135 0.0358,-0.0381 0.0698,-0.0776 0.10595,-0.11542 0.41314,-0.43293 0.84722,-0.84835 1.30612,-1.23936 0.069,-0.0588 0.14413,-0.11018 0.21403,-0.16795 0.088,-0.0726 0.17994,-0.14036 0.26957,-0.21144 0.58953,-0.46832 1.20095,-0.91064 1.84872,-1.30096 -0.64667,-0.38966 -1.25707,-0.83098 -1.8457,-1.29837 -0.0915,-0.0725 -0.18532,-0.14154 -0.27518,-0.21575 -0.53445,-0.44142 -1.0432,-0.90808 -1.51756,-1.40517 -0.036,-0.0379 -0.0702,-0.0772 -0.10595,-0.11541 -0.0941,-0.1004 -0.1754,-0.21018 -0.26699,-0.31265 -0.2694,-0.30133 -0.5387,-0.60235 -0.7859,-0.9207 -0.12309,-0.15822 -0.23328,-0.32583 -0.35098,-0.48833 -0.10633,-0.1471 -0.211,-0.29376 -0.31265,-0.44399 -0.1168,-0.17261 -0.237,-0.34233 -0.34752,-0.51891 -0.15624,-0.24909 -0.29541,-0.50838 -0.43924,-0.76568 -0.13969,-0.25045 -0.28011,-0.49954 -0.40739,-0.75663 -0.20289,-0.40906 -0.38058,-0.83103 -0.55164,-1.25746 -0.0738,-0.18416 -0.15678,-0.36356 -0.22436,-0.55035 -0.16713,-0.46179 -0.3035,-0.93657 -0.43194,-1.41551 -0.0448,-0.16649 -0.10137,-0.32846 -0.14125,-0.49653 -0.11959,-0.5059 -0.20442,-1.02416 -0.27905,-1.54597 -0.0218,-0.15089 -0.058,-0.29781 -0.0757,-0.44959 -0.078,-0.67059 -0.12188,-1.35143 -0.12188,-2.04295 z"
       style="display:inline;fill:#000000;fill-opacity:1;stroke:#000000;stroke-width:0.25;stroke-linecap:square;stroke-dasharray:none;stroke-opacity:1"
       id="path136-0-6-0" />
    <path
       d="m 936.88635,644.94006 c -0.19927,0.11976 -0.40288,0.23127 -0.6072,0.34322 -0.29239,0.16019 -0.58833,0.31279 -0.89056,0.45648 -0.21445,0.10196 -0.43068,0.2003 -0.64983,0.29369 -0.31305,0.13339 -0.63133,0.25499 -0.95343,0.37035 -0.22158,0.0793 -0.4423,0.15895 -0.66792,0.22952 -0.33576,0.10504 -0.67778,0.19319 -1.02189,0.27819 -0.22106,0.0546 -0.43936,0.11451 -0.66363,0.16064 -0.37938,0.078 -0.76618,0.13342 -1.1541,0.18647 -0.19838,0.0271 -0.39341,0.0648 -0.59384,0.0853 -0.5886,0.0599 -1.18407,0.0955 -1.78844,0.0956 H 945.391 v -17.49634 c -1.3e-4,0.60618 -0.0358,1.20373 -0.096,1.79403 -0.0197,0.19301 -0.0564,0.38034 -0.0823,0.57146 -0.0534,0.39384 -0.10986,0.78668 -0.18905,1.17176 -0.0459,0.22295 -0.10553,0.43995 -0.15977,0.65972 -0.0854,0.34596 -0.17387,0.69001 -0.27948,1.02751 -0.0706,0.22552 -0.15018,0.44599 -0.22953,0.66749 -0.11509,0.32127 -0.23645,0.63857 -0.36949,0.95084 -0.0932,0.2187 -0.19068,0.43409 -0.2924,0.6481 -0.14531,0.3058 -0.29985,0.60519 -0.46207,0.9009 -0.11,0.20052 -0.21968,0.40037 -0.3372,0.59601 v 0 c -0.002,0.004 -0.005,0.005 -0.005,0.009 -0.17707,0.29438 -0.36625,0.57936 -0.55982,0.86214 -0.12668,0.18505 -0.24933,0.37221 -0.38284,0.55206 -0.21757,0.29311 -0.45051,0.57276 -0.68558,0.85138 -0.12779,0.15149 -0.24832,0.30858 -0.38111,0.45561 -0.20292,0.22468 -0.42316,0.43209 -0.63734,0.64596 -0.20818,0.20787 -0.40949,0.42202 -0.62788,0.61926 -0.14523,0.13118 -0.3004,0.25049 -0.45,0.3768 -0.28114,0.23738 -0.56367,0.47248 -0.85955,0.69204 -0.17874,0.13263 -0.36477,0.25437 -0.54864,0.38025 -0.28033,0.19192 -0.56264,0.37981 -0.85438,0.55552 -0.003,0.005 -0.005,0.01 -0.005,0.0147 -0.004,-0.002 -0.005,-0.005 -0.008,-0.005 z"
       style="display:inline;fill:#000000;fill-opacity:1;stroke:#000000;stroke-width:0.25;stroke-linecap:square;stroke-dasharray:none;stroke-opacity:1"
       id="path183-2-0-7" />
    <path
       d="m 915.47335,631.35131 c -0.005,-0.043 -0.009,-0.086 -0.0133,-0.12919 -0.043,-0.4217 -0.0688,-0.84855 -0.0689,-1.28158 l -2.50243,8.98955 c 1.47657,2.45853 3.53668,4.52085 5.99317,6.00049 -2.1074,-4.52832 -3.21017,-9.05467 -3.40849,-13.57927 z"
       style="display:inline;fill:#000000;fill-opacity:1;stroke:#000000;stroke-width:0.25;stroke-linecap:square;stroke-dasharray:none;stroke-opacity:1"
       id="path184-4-3-6" />
    <path
       d="m 936.90056,644.93058 c 0.29401,-0.1771 0.57928,-0.36626 0.86171,-0.55983 0.18001,-0.12338 0.36277,-0.24307 0.53787,-0.37292 0.29813,-0.22113 0.58326,-0.45843 0.86643,-0.69763 0.14831,-0.12529 0.30256,-0.24373 0.44657,-0.3738 0.21832,-0.19718 0.41975,-0.41144 0.62787,-0.61926 0.21412,-0.21381 0.43448,-0.42134 0.63734,-0.64595 0.13269,-0.14692 0.25341,-0.30423 0.38111,-0.45561 0.23497,-0.27851 0.4681,-0.55839 0.68558,-0.85138 0.13339,-0.1797 0.25627,-0.36717 0.38283,-0.55207 0.19344,-0.28259 0.38288,-0.56796 0.55983,-0.86214 0.002,-0.004 0.005,-0.006 0.005,-0.01 l -2.50243,-8.98912 c 0,0.005 -8.4e-4,0.009 -8.4e-4,0.0142 -5.9e-4,0.47224 -0.0299,0.93752 -0.0814,1.39612 -0.19836,4.52446 -1.30115,9.05109 -3.40849,13.57928 z"
       style="display:inline;fill:#000000;fill-opacity:1;stroke:#000000;stroke-width:0.25;stroke-linecap:square;stroke-dasharray:none;stroke-opacity:1"
       id="path185-8-2-8" />
    <path
       d="m 918.87495,614.93801 c 0.005,-0.003 0.009,-0.005 0.0134,-0.008 -2.33038,-4.99292 -3.49576,-9.98826 -3.49677,-14.98573 0,-0.002 -4.2e-4,-0.004 -4.2e-4,-0.005 l -2.50244,-8.99041 c -1.57902,2.6291 -2.49726,5.70029 -2.49727,8.99041 0,0.68802 0.0428,1.37 0.12188,2.0438 0.0175,0.15043 0.0537,0.29475 0.0749,0.44399 0.075,0.5218 0.15909,1.04149 0.27991,1.55072 0.0399,0.16852 0.0966,0.32993 0.14125,0.49653 0.12833,0.47745 0.2644,0.95252 0.43193,1.4155 0.0676,0.18702 0.15055,0.36637 0.22436,0.55035 0.17053,0.42542 0.34866,0.84741 0.55165,1.25746 0.0857,0.17266 0.18233,0.33836 0.27345,0.50773 0.26481,0.49331 0.55286,0.97324 0.86386,1.43919 0.0903,0.1349 0.1813,0.26913 0.27517,0.40135 0.0414,0.0585 0.0827,0.11688 0.12488,0.17484 0.34359,0.4725 0.71093,0.92819 1.10158,1.36555 0.1015,0.11362 0.19515,0.23342 0.29972,0.34451 0.49722,0.52814 1.02945,1.02634 1.59379,1.49258 0.0926,0.0765 0.18991,0.14795 0.28422,0.22264 0.58436,0.46282 1.19236,0.90199 1.84098,1.29191 z"
       style="display:inline;fill:#000000;fill-opacity:1;stroke:#000000;stroke-width:0.25;stroke-linecap:square;stroke-dasharray:none;stroke-opacity:1"
       id="path186-3-2-2" />
    <path
       d="m 915.3911,599.93806 c 5e-5,-0.4329 0.026,-0.85958 0.0689,-1.28114 0.005,-0.0432 0.008,-0.0862 0.0133,-0.12918 0.19828,-4.52484 1.30094,-9.05118 3.40849,-13.57971 -2.45658,1.47964 -4.51656,3.54232 -5.99317,6.00093 z"
       style="display:inline;fill:#000000;fill-opacity:1;stroke:#000000;stroke-width:0.25;stroke-linecap:square;stroke-dasharray:none;stroke-opacity:1"
       id="path187-9-1-3" />
    <path
       d="m 936.90056,584.94802 c 2.10744,4.5283 3.21011,9.05469 3.40849,13.57928 0.0522,0.46355 0.0823,0.93371 0.0823,1.41119 l 2.50243,-8.98954 c -0.002,-0.004 -0.005,-0.006 -0.005,-0.01 -0.17722,-0.29461 -0.36694,-0.58043 -0.56069,-0.86342 -0.12586,-0.18384 -0.24807,-0.37037 -0.38068,-0.54907 -0.22074,-0.29744 -0.45716,-0.58176 -0.69591,-0.86428 -0.12481,-0.1477 -0.24252,-0.3014 -0.37207,-0.44486 -0.2,-0.22142 -0.41736,-0.42596 -0.62829,-0.6369 -0.21095,-0.21094 -0.41547,-0.42831 -0.63692,-0.62831 -0.14601,-0.13186 -0.30218,-0.252 -0.4526,-0.37895 -0.27998,-0.2363 -0.56193,-0.47039 -0.85654,-0.68903 -0.17869,-0.1326 -0.36522,-0.25481 -0.54906,-0.38068 -0.28018,-0.19183 -0.56279,-0.37989 -0.85438,-0.55552 z"
       style="display:inline;fill:#000000;fill-opacity:1;stroke:#000000;stroke-width:0.25;stroke-linecap:square;stroke-dasharray:none;stroke-opacity:1"
       id="path188-0-4-9" />
    <path
       d="m 927.8912,582.43956 c -3.29205,0 -6.36503,0.9187 -8.99515,2.49942 -0.005,0.003 -0.009,0.005 -0.0142,0.009 -2.10755,4.52855 -3.21021,9.05488 -3.40849,13.5797 0.009,-0.0846 0.0292,-0.16572 0.0405,-0.24977 0.0165,-0.12375 0.0333,-0.24647 0.0534,-0.36905 0.0273,-0.1672 0.0526,-0.33463 0.0866,-0.49954 0.0325,-0.15784 0.0745,-0.31162 0.11284,-0.46724 0.0483,-0.19613 0.0915,-0.39416 0.149,-0.58652 0.0163,-0.0545 0.0377,-0.10643 0.0546,-0.16064 0.0491,-0.1564 0.10476,-0.30923 0.15977,-0.46293 0.0828,-0.2315 0.17023,-0.46019 0.26613,-0.68515 0.0466,-0.10934 0.0899,-0.21998 0.13953,-0.32771 0.0308,-0.0667 0.0654,-0.13069 0.0973,-0.1968 0.0946,-0.19631 0.19614,-0.38791 0.30058,-0.57834 0.0806,-0.14692 0.1614,-0.29299 0.24762,-0.43624 0.0665,-0.11036 0.13183,-0.2209 0.20154,-0.32901 0.0504,-0.0782 0.10598,-0.15172 0.15804,-0.22867 0.0124,-0.0184 0.0253,-0.0363 0.038,-0.0546 0.0902,-0.13178 0.17754,-0.26507 0.27258,-0.39317 0.16372,-0.22063 0.33878,-0.43165 0.51634,-0.64079 0.004,-0.005 0.006,-0.009 0.0103,-0.0133 0.0486,-0.0571 0.0912,-0.11866 0.14081,-0.17482 0.0309,-0.0351 0.0623,-0.0692 0.0935,-0.10379 0.15136,-0.1677 0.31485,-0.32305 0.47499,-0.48232 0.13519,-0.13446 0.26531,-0.27357 0.40652,-0.40178 0.0565,-0.0513 0.11477,-0.10041 0.17226,-0.15073 0.0818,-0.0716 0.1695,-0.13547 0.2532,-0.20498 0.29422,-0.24435 0.59816,-0.47594 0.91425,-0.69289 0.0759,-0.0521 0.14809,-0.10799 0.22522,-0.15848 0.0787,-0.0515 0.16039,-0.0975 0.2403,-0.14727 0.44671,-0.27823 0.90546,-0.53859 1.3875,-0.75966 1.58461,-0.72665 3.34733,-1.13214 5.2047,-1.13214 1.85734,10e-6 3.62008,0.4055 5.20467,1.13214 0.56812,0.26054 1.10933,0.56759 1.62781,0.90693 0.17603,0.11522 0.33369,0.25268 0.50341,0.37638 0.33131,0.24146 0.66037,0.48407 0.96592,0.7562 0.37603,0.33487 0.73733,0.68485 1.07056,1.06239 0.0496,0.0562 0.0922,0.11776 0.14082,0.17482 0.29321,0.34442 0.5658,0.70537 0.82079,1.08047 0.0858,0.12619 0.16768,0.25383 0.24891,0.38327 0.22707,0.36177 0.43551,0.7351 0.62529,1.12052 0.0476,0.0967 0.1021,0.18871 0.14727,0.2868 0.21945,0.4765 0.40646,0.96968 0.56543,1.47623 0.0398,0.12661 0.0693,0.25667 0.10508,0.38499 0.1126,0.40374 0.20492,0.81466 0.2769,1.23378 0.0265,0.15427 0.0536,0.3072 0.0745,0.46335 0.0112,0.084 0.031,0.16524 0.0405,0.24978 -0.19838,-4.52458 -1.30106,-9.05097 -3.4085,-13.57928 -0.002,-8.3e-4 -0.005,-0.003 -0.005,-0.005 -0.003,-0.002 -0.005,-0.004 -0.009,-0.005 -0.1978,-0.11887 -0.40012,-0.23076 -0.60289,-0.34192 -0.29309,-0.16066 -0.5906,-0.31414 -0.89357,-0.4582 -0.21569,-0.10255 -0.43328,-0.20111 -0.65371,-0.29499 -0.31093,-0.1324 -0.62756,-0.25358 -0.94741,-0.36819 -0.22167,-0.0794 -0.44308,-0.15933 -0.66878,-0.22996 -0.33736,-0.10557 -0.68169,-0.19413 -1.02749,-0.27949 -0.21958,-0.0542 -0.43699,-0.11395 -0.65974,-0.15975 -0.38505,-0.0792 -0.77794,-0.13563 -1.17176,-0.18906 -0.19103,-0.0259 -0.37853,-0.0625 -0.57146,-0.0823 -0.59141,-0.0604 -1.19013,-0.096 -1.79747,-0.096 z"
       style="display:inline;fill:none;fill-opacity:1;stroke:#000000;stroke-width:0.25;stroke-linecap:square;stroke-dasharray:none;stroke-opacity:1"
       id="path189-5-7-0" />
    <path
       d="m 915.47335,631.35131 c 0.19832,4.5246 1.30109,9.05095 3.40849,13.57927 0.005,0.003 0.009,0.006 0.0143,0.009 2.63013,1.58072 5.7031,2.49942 8.99515,2.49942 0.60575,-2e-5 1.20328,-0.0355 1.79317,-0.0956 0.19856,-0.0202 0.39172,-0.0576 0.58825,-0.0844 0.38984,-0.0532 0.77891,-0.10891 1.16014,-0.18732 0.22208,-0.0457 0.43866,-0.10533 0.65758,-0.15935 0.34625,-0.0854 0.691,-0.1742 1.02879,-0.27991 0.22484,-0.0704 0.44537,-0.15001 0.6662,-0.2291 0.32233,-0.11544 0.64145,-0.2377 0.95472,-0.37121 0.21783,-0.0928 0.4332,-0.19022 0.64639,-0.29154 0.3038,-0.14439 0.60186,-0.29842 0.89572,-0.45949 0.20297,-0.11126 0.40535,-0.22295 0.60333,-0.34193 0.003,-0.002 0.005,-0.004 0.008,-0.005 0.002,-8.3e-4 0.005,-0.003 0.005,-0.004 2.10759,-4.52848 3.21053,-9.05495 3.40892,-13.57971 -0.009,0.0844 -0.0293,0.1659 -0.0405,0.24977 -0.0208,0.15615 -0.048,0.30911 -0.0745,0.46338 -0.072,0.41908 -0.1643,0.83004 -0.27689,1.23377 -0.0358,0.12831 -0.0654,0.25837 -0.10508,0.38498 -0.15897,0.50653 -0.346,0.99975 -0.56544,1.47623 -0.0452,0.0981 -0.0997,0.1901 -0.14727,0.2868 -0.18977,0.3854 -0.39822,0.75877 -0.62529,1.12052 -0.0812,0.12943 -0.16311,0.25708 -0.24891,0.38327 -0.25498,0.37508 -0.52758,0.73607 -0.82078,1.08047 -0.0486,0.0571 -0.0913,0.11866 -0.14083,0.17483 -0.33269,0.37693 -0.69303,0.72625 -1.0684,1.06067 -0.30992,0.27613 -0.64371,0.52239 -0.98013,0.76696 -0.16506,0.11999 -0.31819,0.25363 -0.48921,0.36561 -0.51916,0.33996 -1.06099,0.64772 -1.62996,0.90864 -1.5846,0.72666 -3.34731,1.13171 -5.20467,1.13171 -1.85737,0 -3.62009,-0.40505 -5.20469,-1.13171 -0.48204,-0.22105 -0.94079,-0.48143 -1.38751,-0.75964 -0.0806,-0.0503 -0.163,-0.097 -0.24245,-0.149 -0.0753,-0.0492 -0.14555,-0.10378 -0.21963,-0.1546 -0.31726,-0.21762 -0.62242,-0.44985 -0.91768,-0.69505 -0.0837,-0.0695 -0.17137,-0.13334 -0.25321,-0.20499 -0.0583,-0.051 -0.11713,-0.10083 -0.17441,-0.15287 -0.14048,-0.12761 -0.26983,-0.26583 -0.40437,-0.39963 -0.15928,-0.15842 -0.32223,-0.31297 -0.47284,-0.47972 -0.0319,-0.0354 -0.064,-0.0706 -0.0956,-0.10638 -0.054,-0.0613 -0.10046,-0.12849 -0.15331,-0.19077 -0.17683,-0.20838 -0.3511,-0.41842 -0.51418,-0.63821 -0.0951,-0.12808 -0.18241,-0.26138 -0.27259,-0.39317 -0.0125,-0.0183 -0.0255,-0.0363 -0.0379,-0.0546 -0.0521,-0.0769 -0.10766,-0.15052 -0.15804,-0.22866 -0.0696,-0.10811 -0.13512,-0.21865 -0.20154,-0.32901 -0.0862,-0.14324 -0.16706,-0.28932 -0.24761,-0.43624 -0.10444,-0.19044 -0.20595,-0.38204 -0.30059,-0.57835 -0.0319,-0.0661 -0.0665,-0.13004 -0.0973,-0.19679 -0.0496,-0.10772 -0.0929,-0.21837 -0.13952,-0.32772 -0.0959,-0.22496 -0.18329,-0.45364 -0.26614,-0.68515 -0.055,-0.15368 -0.11067,-0.30652 -0.15977,-0.46293 -0.017,-0.0543 -0.0384,-0.1061 -0.0546,-0.16062 -0.0575,-0.19237 -0.10065,-0.39039 -0.149,-0.58654 -0.0383,-0.15561 -0.0804,-0.30938 -0.11284,-0.46724 -0.034,-0.16486 -0.0592,-0.33237 -0.0866,-0.49953 -0.02,-0.12244 -0.0369,-0.24502 -0.0534,-0.36862 -0.0113,-0.0842 -0.031,-0.16551 -0.0405,-0.25021 z"
       style="display:inline;fill:none;fill-opacity:1;stroke:#000000;stroke-width:0.25;stroke-linecap:square;stroke-dasharray:none;stroke-opacity:1"
       id="path190-2-7-3" />
    <path
       d="m 919.18329,615.12233 c -0.0989,-0.0568 -0.19729,-0.1144 -0.29499,-0.17313 -2.33036,4.99287 -3.49573,9.9879 -3.49677,14.98531 0.002,-5.04211 2.98886,-9.38634 7.28983,-11.36106 -0.86243,-1.32151 -1.99936,-2.52213 -3.49807,-3.45112 z"
       style="display:inline;fill:#000000;fill-opacity:1;stroke:#000000;stroke-width:0.25;stroke-linecap:square;stroke-dasharray:none;stroke-opacity:1"
       id="path361-2-0-8" />
    <path
       d="m 945.391,599.93936 c 0,0.53565 -0.0246,1.06808 -0.0727,1.59551 -0.006,0.0766 -0.0209,0.15103 -0.0289,0.22737 -0.0115,0.11068 -0.0252,0.22023 -0.0388,0.3303 -0.0164,0.13254 -0.0418,0.2622 -0.0612,0.39403 -0.0518,0.35476 -0.11022,0.70669 -0.18301,1.05421 -0.0437,0.20832 -0.0929,0.4137 -0.14383,0.61925 -0.008,0.0342 -0.0154,0.0692 -0.0241,0.10335 -0.0188,0.0737 -0.0319,0.14881 -0.0516,0.22221 -0.0723,0.26927 -0.1591,0.53184 -0.24375,0.79582 -0.0629,0.19629 -0.12331,0.3929 -0.19293,0.5861 -0.0704,0.19516 -0.14392,0.38818 -0.22091,0.58006 -0.0397,0.099 -0.0851,0.19466 -0.12661,0.29283 -0.0444,0.10498 -0.0893,0.2096 -0.13565,0.3135 -0.0626,0.14024 -0.11649,0.28465 -0.18259,0.42289 -0.14124,0.29541 -0.30073,0.57962 -0.45776,0.86558 -0.0588,0.10735 -0.11378,0.21603 -0.17485,0.32212 -0.0615,0.10658 -0.11722,0.21654 -0.18087,0.32169 -0.0664,0.10982 -0.14307,0.21217 -0.21187,0.3204 -0.17375,0.27331 -0.34664,0.54727 -0.53485,0.81001 -0.0148,0.0208 -0.0272,0.0431 -0.0421,0.0637 -0.0394,0.0546 -0.0836,0.10526 -0.12359,0.15933 -0.0351,0.0474 -0.0691,0.0951 -0.10464,0.14213 -0.10169,0.13446 -0.21324,0.26003 -0.31867,0.39143 -0.13918,0.17344 -0.26916,0.35444 -0.41471,0.52237 -0.0628,0.0726 -0.14091,0.13211 -0.20498,0.20369 -0.1351,0.15081 -0.26203,0.3083 -0.40222,0.45433 -0.11896,0.12396 -0.25186,0.23464 -0.37466,0.35527 -0.29383,0.28863 -0.58261,0.58261 -0.89614,0.85008 -0.0188,0.016 -0.0398,0.0298 -0.0585,0.0457 -0.0334,0.0282 -0.0694,0.0529 -0.10292,0.0809 -0.0482,0.0401 -0.0995,0.0767 -0.14815,0.11627 -0.11275,0.0918 -0.2275,0.18042 -0.34278,0.26959 -0.53875,0.41733 -1.09376,0.81469 -1.67992,1.16788 0.58689,0.35364 1.1423,0.75212 1.68164,1.17004 0.11264,0.0871 0.22525,0.17305 0.33546,0.26269 0.0503,0.041 0.10309,0.0786 0.15288,0.12015 0.0341,0.0283 0.0705,0.0532 0.10421,0.0818 0.33682,0.28488 0.64949,0.59562 0.96377,0.90477 0.11888,0.11695 0.24774,0.22397 0.36302,0.34408 0.14069,0.14648 0.26796,0.30473 0.40351,0.45604 0.0643,0.0718 0.14282,0.13132 0.20585,0.20412 0.14619,0.16868 0.27667,0.35072 0.41642,0.52495 0.10497,0.13084 0.21615,0.25584 0.31738,0.38972 0.0351,0.0465 0.0687,0.0936 0.10336,0.14039 0.24881,0.33593 0.47979,0.68494 0.70452,1.03869 0.0676,0.10635 0.14269,0.20692 0.208,0.3148 0.0642,0.10603 0.1206,0.2168 0.18259,0.32427 0.0602,0.10464 0.11421,0.21195 0.17225,0.31781 0.15765,0.28695 0.31775,0.57214 0.45949,0.8686 0.0658,0.13768 0.11941,0.28151 0.18174,0.42116 0.0462,0.10349 0.091,0.20767 0.13521,0.31221 0.0421,0.0996 0.0881,0.19674 0.12834,0.29715 0.0772,0.1923 0.1509,0.38575 0.22133,0.58135 0.0686,0.1907 0.12861,0.38464 0.19078,0.57835 0.0849,0.26467 0.17206,0.52797 0.2446,0.79797 0.0204,0.0759 0.034,0.15369 0.0534,0.22996 0.008,0.0323 0.0143,0.0654 0.0224,0.0977 0.0512,0.20628 0.10092,0.41232 0.1447,0.62141 0.0725,0.34651 0.13043,0.69748 0.18216,1.05119 0.0194,0.13198 0.0451,0.26176 0.0616,0.39446 0.0136,0.11063 0.0272,0.22076 0.0388,0.33202 0.007,0.0762 0.0219,0.15047 0.0289,0.22694 0.0481,0.52658 0.0727,1.05772 0.0727,1.5925 z"
       style="display:inline;fill:#000000;fill-opacity:1;stroke:#000000;stroke-width:0.25;stroke-linecap:square;stroke-dasharray:none;stroke-opacity:1"
       id="path362-7-9-3" />
    <path
       d="m 910.3914,582.43956 v 17.4998 c 10e-6,-3.29013 0.91825,-6.36131 2.49727,-8.99041 v 0 c 0.60743,-1.01139 1.30378,-1.96341 2.09634,-2.82843 0.79984,-0.87294 1.68722,-1.66447 2.64798,-2.36075 0.40152,-0.29098 0.82268,-0.55506 1.24885,-0.81175 0.003,-0.005 0.005,-0.01 0.005,-0.0146 0.004,0.002 0.005,0.005 0.008,0.005 2.63011,-1.58071 5.70309,-2.49942 8.99515,-2.49942 z"
       style="display:inline;fill:none;fill-opacity:1;stroke:#000000;stroke-width:0.25;stroke-linecap:square;stroke-dasharray:none;stroke-opacity:1"
       id="path363-3-5-1" />
    <path
       d="m 927.8912,582.43956 c 0.60739,0 1.20603,0.0357 1.79748,0.096 0.19303,0.0198 0.38033,0.0564 0.57145,0.0823 0.39401,0.0535 0.78656,0.10982 1.17176,0.18905 0.22297,0.0459 0.43997,0.10552 0.65975,0.15977 0.34595,0.0854 0.68999,0.17386 1.02749,0.27948 0.22594,0.0707 0.4469,0.15045 0.66879,0.22996 0.3201,0.1147 0.63622,0.23567 0.9474,0.36819 0.2206,0.0939 0.43786,0.19236 0.6537,0.29499 0.30327,0.14419 0.60022,0.29738 0.89358,0.4582 0.20316,0.11136 0.40559,0.2224 0.60375,0.3415 0.004,-0.002 0.005,-0.005 0.008,-0.005 0.003,0.005 0.004,0.009 0.005,0.0142 0,0 4.3e-4,4.4e-4 4.3e-4,4.4e-4 0.29171,0.17569 0.57409,0.36361 0.85438,0.55551 0.18405,0.12601 0.37017,0.24792 0.54907,0.38068 0.29478,0.21876 0.57639,0.45258 0.85653,0.68903 0.15051,0.12702 0.30651,0.24702 0.45261,0.37896 0.21914,0.19792 0.42115,0.41277 0.63002,0.62141 0.21425,0.21401 0.43436,0.42156 0.63734,0.64639 0.13116,0.14528 0.2505,0.30036 0.37681,0.45002 0.23644,0.28014 0.47069,0.56218 0.68945,0.85696 0.13225,0.17823 0.25384,0.36359 0.37939,0.54691 0.19363,0.28277 0.38355,0.56819 0.56068,0.86257 0.003,0.005 0.005,0.007 0.006,0.0112 v 4.4e-4 c 0.1171,0.19493 0.22627,0.39405 0.3359,0.59383 0.0896,0.1632 0.19074,0.31947 0.27517,0.48576 0.0686,0.13523 0.12254,0.27877 0.18776,0.41601 1.4e-4,2.9e-4 2.9e-4,5.6e-4 4.4e-4,8.3e-4 0.10195,0.21454 0.19945,0.43059 0.29283,0.64983 0.13266,0.31147 0.2538,0.62784 0.36863,0.94826 0.0795,0.22192 0.15925,0.44283 0.22995,0.66878 0.10577,0.33796 0.19445,0.68236 0.27991,1.02879 0.0541,0.21906 0.11362,0.43537 0.15934,0.65759 0.0796,0.38676 0.13633,0.78087 0.18991,1.17649 0.0257,0.18968 0.0618,0.37561 0.0814,0.56716 0.0604,0.59031 0.0959,1.18782 0.096,1.79403 v -17.49592 z"
       style="display:inline;fill:none;fill-opacity:1;stroke:#000000;stroke-width:0.25;stroke-linecap:square;stroke-dasharray:none;stroke-opacity:1"
       id="path364-7-7-0" />
    <path
       d="m 927.89077,647.43948 c -3.2919,-8e-5 -6.3647,-0.91876 -8.99472,-2.49941 -0.004,0.002 -0.005,0.005 -0.008,0.005 -0.003,-0.005 -0.005,-0.01 -0.005,-0.0146 0,0 0,-4.3e-4 0,-4.3e-4 -0.93602,-0.5638 -1.8222,-1.20249 -2.63334,-1.92581 -1.31767,-1.175 -2.44588,-2.55294 -3.35984,-4.07469 v 0 c -1.57903,-2.62911 -2.49727,-5.70069 -2.49727,-8.99083 v 17.50022 z"
       style="display:inline;fill:#000000;fill-opacity:1;stroke:#000000;stroke-width:0.25;stroke-linecap:square;stroke-dasharray:none;stroke-opacity:1"
       id="path365-9-2-0" />
    <path
       d="m 943.22963,591.54193 c -0.10939,-0.19934 -0.21906,-0.39846 -0.3359,-0.59298 l -2.50243,8.98954 c 0,1.5e-4 0,7.2e-4 0,8.3e-4 0,8.4e-4 -4.3e-4,0.003 -4.3e-4,0.004 -7.7e-4,4.99798 -1.16615,9.99359 -3.49677,14.98703 0.005,0.003 0.009,0.005 0.0134,0.008 0.0498,-0.03 0.0926,-0.0682 0.14211,-0.0986 0.67773,-0.41752 1.32295,-0.88173 1.93528,-1.38492 0.20446,-0.16782 0.38935,-0.35431 0.58523,-0.53055 0.43928,-0.39541 0.86405,-0.8057 1.26134,-1.24324 0.30502,-0.33629 0.60487,-0.67661 0.88195,-1.0344 0.0677,-0.0875 0.13979,-0.17181 0.20584,-0.26053 0.0658,-0.0883 0.12311,-0.18304 0.18733,-0.27259 0.31991,-0.44714 0.62431,-0.90471 0.90045,-1.37933 0.10507,-0.18018 0.19842,-0.36746 0.29715,-0.55165 0.23404,-0.43762 0.45269,-0.8832 0.64897,-1.33971 0.0863,-0.20043 0.16827,-0.40299 0.24718,-0.6072 0.17878,-0.46292 0.33448,-0.9351 0.47371,-1.41335 0.0594,-0.20433 0.12278,-0.40675 0.17483,-0.61408 5.5e-4,-0.003 8.4e-4,-0.005 0.002,-0.006 0.12683,-0.50452 0.22187,-1.01824 0.30361,-1.53564 0.0161,-0.10246 0.0374,-0.20314 0.0517,-0.30617 0.018,-0.1287 0.0374,-0.25694 0.0525,-0.38628 0.0786,-0.67129 0.13264,-1.34853 0.13264,-2.03391 0,-8.3e-4 0,-0.003 0,-0.005 -1.3e-4,-0.60584 -0.0354,-1.20319 -0.0956,-1.79316 -0.0198,-0.19424 -0.057,-0.38347 -0.0831,-0.57577 -0.0534,-0.3925 -0.1097,-0.7841 -0.18862,-1.16789 -0.0461,-0.22405 -0.10606,-0.44276 -0.16063,-0.6636 -0.0849,-0.34377 -0.17327,-0.68606 -0.2782,-1.02148 -0.0714,-0.22794 -0.15183,-0.45184 -0.2321,-0.67567 -0.11384,-0.31737 -0.23384,-0.63148 -0.36519,-0.94008 -0.0942,-0.22139 -0.1937,-0.44054 -0.29671,-0.65715 -0.14394,-0.30268 -0.29726,-0.59992 -0.45776,-0.89272 -8.4e-4,-0.002 -0.003,-0.005 -0.004,-0.005 z"
       style="display:inline;fill:#000000;fill-opacity:1;stroke:#000000;stroke-width:0.25;stroke-linecap:square;stroke-dasharray:none;stroke-opacity:1"
       id="path366-0-9-8" />
    <path
       d="m 933.10104,618.57345 c -1.58593,-0.72816 -3.35044,-1.13387 -5.20984,-1.13387 -1.85939,0 -3.62391,0.40571 -5.20984,1.13387 2.7099,4.15242 2.71,9.49884 2.71,11.3658 0,1.86609 -1.3e-4,7.21371 -2.70484,11.36839 1.5846,0.72666 3.34732,1.13171 5.20468,1.13171 1.85737,0 3.62008,-0.40505 5.20468,-1.13171 -2.70471,-4.15468 -2.70484,-9.5023 -2.70484,-11.36839 0,-1.86696 10e-5,-7.21338 2.71,-11.3658 z"
       style="display:inline;fill:#000000;fill-opacity:1;stroke:#000000;stroke-width:0.25;stroke-linecap:square;stroke-dasharray:none;stroke-opacity:1"
       id="path367-2-7-0" />
    <path
       d="m 922.68652,588.57139 c 2.70471,4.1547 2.70484,9.50189 2.70484,11.36798 0,1.86694 -10e-5,7.21337 -2.71,11.36579 1.58593,0.72816 3.35045,1.1343 5.20984,1.1343 1.8594,0 3.62391,-0.40614 5.20984,-1.1343 -2.7099,-4.15242 -2.71,-9.49885 -2.71,-11.36579 0,-1.86609 1.3e-4,-7.21328 2.70484,-11.36798 -1.58459,-0.72663 -3.34733,-1.13213 -5.20468,-1.13213 -1.85736,0 -3.62008,0.40548 -5.20468,1.13213 z"
       style="display:inline;fill:none;fill-opacity:1;stroke:#000000;stroke-width:0.25;stroke-linecap:square;stroke-dasharray:none;stroke-opacity:1"
       id="path368-3-6-4" />
    <path
       d="m 915.39153,599.94409 c 8.4e-4,4.99746 1.16639,9.99282 3.49677,14.98573 0.0977,-0.0587 0.19606,-0.11668 0.29499,-0.17354 2.56449,-1.47399 5.53775,-2.31682 8.70791,-2.31682 -1.85939,0 -3.62391,-0.40614 -5.20984,-1.1343 -4.30097,-1.97473 -7.28792,-6.31896 -7.28983,-11.36107 z"
       style="display:inline;fill:#000000;fill-opacity:1;stroke:#000000;stroke-width:0.25;stroke-linecap:square;stroke-dasharray:none;stroke-opacity:1"
       id="path369-9-8-7" />
    <path
       d="m 940.39087,599.9428 c -0.002,5.04266 -2.98848,9.38746 -7.28983,11.36236 -1.58593,0.72816 -3.35044,1.1343 -5.20984,1.1343 3.17017,0 6.14342,0.84283 8.70791,2.31682 0.0989,0.0568 0.19729,0.11482 0.29499,0.17354 2.33062,-4.99342 3.496,-9.98903 3.49677,-14.98702 z"
       style="display:inline;fill:#000000;fill-opacity:1;stroke:#000000;stroke-width:0.25;stroke-linecap:square;stroke-dasharray:none;stroke-opacity:1"
       id="path370-9-2-6" />
    <path
       d="m 927.8912,612.43946 c -3.17016,0 -6.14342,0.84283 -8.70791,2.31682 -0.0929,0.0576 -0.18759,0.11418 -0.28336,0.16967 -0.007,0.005 -0.0148,0.009 -0.0224,0.0133 0.007,0.005 0.0148,0.009 0.0224,0.0138 0.0958,0.0555 0.19041,0.11162 0.28336,0.16924 1.49871,0.92899 2.63564,2.12961 3.49807,3.45112 1.58593,-0.72816 3.35045,-1.13387 5.20984,-1.13387 1.8594,0 3.62391,0.40571 5.20984,1.13387 0.86243,-1.32152 1.99936,-2.52213 3.49807,-3.45112 0.0981,-0.0608 0.19767,-0.1203 0.29886,-0.17872 0.003,-0.002 0.005,-0.003 0.006,-0.005 -0.003,-0.002 -0.005,-0.003 -0.006,-0.005 -0.10119,-0.0584 -0.20079,-0.11836 -0.29886,-0.17915 -2.56449,-1.47379 -5.53774,-2.31662 -8.70791,-2.31662 z"
       style="display:inline;fill:#000000;fill-opacity:1;stroke:#000000;stroke-width:0.25;stroke-linecap:square;stroke-dasharray:none;stroke-opacity:1"
       id="path371-7-9-16" />
  </g>
</svg>
