<?xml version="1.0" encoding="UTF-8" standalone="no"?>
<!-- Created with Inkscape (http://www.inkscape.org/) -->

<svg
   width="35.250175mm"
   height="65.251251mm"
   viewBox="0 0 35.250175 65.251251"
   version="1.1"
   id="svg5"
   xmlns="http://www.w3.org/2000/svg"
   xmlns:svg="http://www.w3.org/2000/svg">
  <defs
     id="defs2" />
  <g
     id="g501"
     style="display:inline"
     transform="translate(-990.26575,-582.31194)">
    <path
       d="m 990.3911,629.93795 c 0,3.29015 0.91825,6.36174 2.49727,8.99084 l 2.50243,-8.98955 c 0,-2.9e-4 0,-8.3e-4 0,-0.002 0,-0.002 4.3e-4,-0.004 4.3e-4,-0.005 8.4e-4,-4.99741 1.16641,-9.99243 3.49677,-14.9853 -0.005,-0.003 -0.009,-0.005 -0.0134,-0.008 -0.64968,0.39056 -1.25876,0.83038 -1.84398,1.29407 -0.0918,0.0727 -0.18672,0.14214 -0.2769,0.2166 -6.3e-4,5.2e-4 -8.3e-4,8.4e-4 -0.002,0.002 -0.56531,0.46685 -1.09839,0.96577 -1.59637,1.49473 -0.0985,0.10461 -0.18674,0.2174 -0.2825,0.32427 -0.005,0.006 -0.0119,0.0142 -0.0181,0.0211 -0.38957,0.43622 -0.7558,0.89049 -1.09856,1.36167 -0.0429,0.0589 -0.0849,0.1184 -0.12704,0.17785 -0.0945,0.13307 -0.18609,0.26816 -0.2769,0.40395 -0.31017,0.4649 -0.59749,0.94402 -0.8617,1.43617 -0.0912,0.16953 -0.18816,0.33533 -0.27389,0.50815 -0.203,0.41004 -0.38112,0.83204 -0.55165,1.25746 -0.0738,0.18399 -0.15668,0.36334 -0.22435,0.55036 -0.16697,0.46143 -0.3026,0.93493 -0.43064,1.41075 -0.0452,0.16847 -0.1027,0.33169 -0.14297,0.50214 -0.12063,0.50851 -0.20453,1.02751 -0.27948,1.54856 -0.0214,0.1497 -0.0574,0.29438 -0.0749,0.44529 -0.0792,0.67379 -0.12187,1.35536 -0.12187,2.04338 z"
       style="display:inline;fill:#000000;fill-opacity:1;stroke:#000000;stroke-width:0.25;stroke-linecap:square;stroke-dasharray:none;stroke-opacity:1"
       id="path133-9-3-8-3-1" />
    <path
       d="m 1016.5988,615.12103 c -1.4987,0.92899 -2.6356,2.12961 -3.4981,3.45112 4.301,1.97472 7.288,6.31895 7.2899,11.36107 -9e-4,-4.99742 -1.1664,-9.99244 -3.4968,-14.98532 -0.098,0.0587 -0.1961,0.11626 -0.295,0.17313 z"
       style="display:inline;fill:none;fill-opacity:1;stroke:#000000;stroke-width:0.25;stroke-linecap:square;stroke-dasharray:none;stroke-opacity:1"
       id="path134-3-8-3-9-73" />
    <path
       d="m 1020.391,629.93967 2.5024,8.98913 c 0.1175,-0.19551 0.2277,-0.39563 0.3376,-0.59601 0.1613,-0.29406 0.3154,-0.59256 0.46,-0.89657 0.1028,-0.21637 0.2017,-0.43471 0.2958,-0.65587 0.1317,-0.30928 0.252,-0.6241 0.3661,-0.94223 5e-4,-0.002 8e-4,-0.003 0,-0.005 0.08,-0.22192 0.1592,-0.44367 0.2299,-0.66964 0.1051,-0.33599 0.1936,-0.67884 0.2786,-1.02319 0.054,-0.22041 0.1142,-0.43872 0.1602,-0.66232 0.079,-0.38436 0.1357,-0.77652 0.1891,-1.16962 0.026,-0.19187 0.063,-0.38023 0.083,-0.57403 0.06,-0.58987 0.096,-1.18745 0.096,-1.79318 0,-0.002 0,-0.003 0,-0.005 v -0.003 c -10e-5,-0.68431 -0.054,-1.36019 -0.1327,-2.03045 -0.015,-0.1308 -0.035,-0.26044 -0.053,-0.39058 -0.014,-0.10161 -0.035,-0.20085 -0.051,-0.30187 -0.082,-0.51698 -0.1764,-1.03065 -0.3031,-1.53479 -0.053,-0.21245 -0.1182,-0.41987 -0.1792,-0.62915 -0.1382,-0.4742 -0.2926,-0.94219 -0.4698,-1.40131 -0.08,-0.20687 -0.1628,-0.41195 -0.2502,-0.61494 -0.196,-0.4557 -0.4144,-0.90068 -0.6481,-1.33756 -0.099,-0.1839 -0.1922,-0.3709 -0.2971,-0.55079 -0.2769,-0.47578 -0.5819,-0.93461 -0.9027,-1.38277 -0.063,-0.0887 -0.1199,-0.18259 -0.1851,-0.27002 -0.065,-0.0874 -0.1361,-0.17044 -0.2029,-0.25665 -0.2786,-0.35993 -0.5802,-0.70224 -0.8871,-1.04042 -0.3949,-0.43482 -0.8171,-0.84272 -1.2536,-1.23593 -0.1983,-0.1786 -0.3858,-0.36702 -0.5929,-0.537 -0.6055,-0.49741 -1.2439,-0.95575 -1.9134,-1.36943 -0.056,-0.0346 -0.1048,-0.0779 -0.1614,-0.11197 0,0.003 -0.01,0.005 -0.013,0.008 2.3313,4.99501 3.4971,9.99219 3.4972,14.99176 z"
       style="display:inline;fill:#000000;fill-opacity:1;stroke:#000000;stroke-width:0.25;stroke-linecap:square;stroke-dasharray:none;stroke-opacity:1"
       id="path135-8-6-7-4-9" />
    <path
       d="m 990.3911,629.93795 c 0,-0.69167 0.0438,-1.37264 0.12187,-2.04336 0.0176,-0.1499 0.0535,-0.29497 0.0749,-0.44399 0.0747,-0.52357 0.15991,-1.04316 0.2799,-1.55072 0.0398,-0.16807 0.0965,-0.33004 0.14125,-0.49654 0.12844,-0.47894 0.26481,-0.95371 0.43193,-1.4155 0.0676,-0.18678 0.15055,-0.3662 0.22436,-0.55034 0.17107,-0.42642 0.34875,-0.84841 0.55164,-1.25747 0.12728,-0.25711 0.2677,-0.50617 0.40739,-0.75662 0.14384,-0.2573 0.28301,-0.5166 0.43924,-0.76567 0.11009,-0.17589 0.22993,-0.34484 0.34624,-0.51676 0.10268,-0.1518 0.2082,-0.30012 0.31566,-0.44872 0.11713,-0.16165 0.22681,-0.32835 0.34925,-0.48576 0.24546,-0.31611 0.51297,-0.61491 0.78031,-0.91426 0.002,-0.002 0.004,-0.005 0.005,-0.005 0.0919,-0.10276 0.17347,-0.21281 0.26785,-0.31349 0.0358,-0.0381 0.0698,-0.0776 0.10595,-0.11542 0.41314,-0.43293 0.84722,-0.84835 1.30612,-1.23936 0.069,-0.0588 0.14413,-0.11018 0.21403,-0.16795 0.088,-0.0726 0.17994,-0.14036 0.26957,-0.21144 0.58953,-0.46832 1.20095,-0.91064 1.84872,-1.30096 -0.64667,-0.38966 -1.25707,-0.83098 -1.8457,-1.29837 -0.0915,-0.0725 -0.18532,-0.14154 -0.27518,-0.21575 -0.53445,-0.44142 -1.0432,-0.90808 -1.51756,-1.40517 -0.036,-0.0379 -0.0702,-0.0772 -0.10595,-0.11541 -0.0941,-0.1004 -0.1754,-0.21018 -0.26699,-0.31265 -0.2694,-0.30133 -0.5387,-0.60235 -0.7859,-0.9207 -0.12309,-0.15822 -0.23328,-0.32583 -0.35098,-0.48833 -0.10633,-0.1471 -0.211,-0.29376 -0.31265,-0.44399 -0.1168,-0.17261 -0.237,-0.34233 -0.34752,-0.51891 -0.15624,-0.24909 -0.29541,-0.50838 -0.43924,-0.76568 -0.13969,-0.25045 -0.28011,-0.49954 -0.40739,-0.75663 -0.20289,-0.40906 -0.38058,-0.83103 -0.55164,-1.25746 -0.0738,-0.18416 -0.15678,-0.36356 -0.22436,-0.55035 -0.16713,-0.46179 -0.3035,-0.93657 -0.43194,-1.41551 -0.0448,-0.16649 -0.10137,-0.32846 -0.14125,-0.49653 -0.11959,-0.5059 -0.20442,-1.02416 -0.27905,-1.54597 -0.0218,-0.15089 -0.058,-0.29781 -0.0757,-0.44959 -0.078,-0.67059 -0.12188,-1.35143 -0.12188,-2.04295 z"
       style="display:inline;fill:#000000;fill-opacity:1;stroke:#000000;stroke-width:0.25;stroke-linecap:square;stroke-dasharray:none;stroke-opacity:1"
       id="path136-0-1-1-9-8" />
    <path
       d="m 1016.886,644.93876 c -0.1992,0.11976 -0.4028,0.23127 -0.6072,0.34322 -0.2923,0.16019 -0.5883,0.31279 -0.8905,0.45648 -0.2145,0.10196 -0.4307,0.2003 -0.6498,0.29369 -0.3131,0.1334 -0.6314,0.255 -0.9535,0.37035 -0.2216,0.0793 -0.4423,0.15895 -0.6679,0.22952 -0.3358,0.10504 -0.6778,0.19319 -1.0219,0.27819 -0.221,0.0546 -0.4393,0.11451 -0.6636,0.16064 -0.3794,0.078 -0.7662,0.13342 -1.1541,0.18647 -0.1984,0.0271 -0.3934,0.0648 -0.5939,0.0853 -0.5886,0.0599 -1.184,0.0955 -1.7884,0.0956 h 17.4955 v -17.49634 c -10e-5,0.60618 -0.036,1.20373 -0.096,1.79403 -0.02,0.19301 -0.056,0.38034 -0.082,0.57146 -0.053,0.39384 -0.1099,0.78668 -0.1891,1.17176 -0.046,0.22296 -0.1055,0.43995 -0.1597,0.65972 -0.085,0.34596 -0.1739,0.69001 -0.2795,1.02751 -0.071,0.22552 -0.1502,0.44599 -0.2295,0.66749 -0.1151,0.32127 -0.2365,0.63857 -0.3695,0.95084 -0.093,0.21871 -0.1907,0.4341 -0.2924,0.6481 -0.1453,0.3058 -0.2999,0.60519 -0.4621,0.9009 -0.11,0.20052 -0.2197,0.40037 -0.3372,0.59601 v 0 c 0,0.004 0,0.005 0,0.009 -0.1771,0.29438 -0.3662,0.57936 -0.5598,0.86214 -0.1267,0.18505 -0.2493,0.37221 -0.3829,0.55206 -0.2175,0.29311 -0.4505,0.57276 -0.6855,0.85138 -0.1278,0.15149 -0.2484,0.30858 -0.3811,0.45561 -0.203,0.22468 -0.4232,0.43209 -0.6374,0.64596 -0.2082,0.20787 -0.4095,0.42202 -0.6279,0.61926 -0.1452,0.13118 -0.3004,0.25049 -0.45,0.3768 -0.2811,0.23738 -0.5636,0.47248 -0.8595,0.69204 -0.1788,0.13263 -0.3648,0.25437 -0.5487,0.38025 -0.2803,0.19192 -0.5626,0.37981 -0.8543,0.55552 0,0.005 0,0.01 0,0.0147 0,-0.002 0,-0.005 -0.01,-0.005 z"
       style="display:inline;fill:none;fill-opacity:1;stroke:#000000;stroke-width:0.25;stroke-linecap:square;stroke-dasharray:none;stroke-opacity:1"
       id="path183-2-9-2-6-4" />
    <path
       d="m 995.47305,631.35001 c -0.005,-0.043 -0.009,-0.086 -0.0133,-0.12919 -0.043,-0.42169 -0.0688,-0.84855 -0.0689,-1.28158 l -2.50243,8.98955 c 1.47657,2.45853 3.53668,4.52085 5.99317,6.00049 -2.1074,-4.52832 -3.21017,-9.05466 -3.40849,-13.57927 z"
       style="display:inline;fill:#000000;fill-opacity:1;stroke:#000000;stroke-width:0.25;stroke-linecap:square;stroke-dasharray:none;stroke-opacity:1"
       id="path184-4-6-6-5-0" />
    <path
       d="m 1016.9003,644.92928 c 0.294,-0.1771 0.5792,-0.36626 0.8617,-0.55982 0.18,-0.12338 0.3627,-0.24306 0.5378,-0.37293 0.2982,-0.22113 0.5833,-0.45843 0.8665,-0.69763 0.1483,-0.12529 0.3025,-0.24373 0.4465,-0.3738 0.2184,-0.19718 0.4198,-0.41144 0.6279,-0.61926 0.2141,-0.21381 0.4345,-0.42134 0.6373,-0.64595 0.1327,-0.14692 0.2535,-0.30423 0.3812,-0.45561 0.2349,-0.27851 0.4681,-0.55839 0.6855,-0.85138 0.1334,-0.1797 0.2563,-0.36717 0.3829,-0.55207 0.1934,-0.28259 0.3828,-0.56796 0.5598,-0.86214 0,-0.004 0,-0.006 0,-0.01 l -2.5024,-8.98912 c 0,0.005 -9e-4,0.009 -9e-4,0.0142 -6e-4,0.47224 -0.03,0.93752 -0.081,1.39612 -0.1983,4.52446 -1.3011,9.05109 -3.4085,13.57928 z"
       style="display:inline;fill:#000000;fill-opacity:1;stroke:#000000;stroke-width:0.25;stroke-linecap:square;stroke-dasharray:none;stroke-opacity:1"
       id="path185-8-7-1-1-6" />
    <path
       d="m 998.87465,614.93671 c 0.005,-0.003 0.009,-0.005 0.0134,-0.008 -2.33038,-4.99293 -3.49576,-9.98827 -3.49677,-14.98573 0,-0.002 -4.2e-4,-0.004 -4.2e-4,-0.005 l -2.50244,-8.99041 c -1.57902,2.6291 -2.49726,5.70028 -2.49727,8.99041 0,0.688 0.0428,1.37 0.12188,2.04379 0.0175,0.15042 0.0537,0.29475 0.0749,0.44399 0.075,0.52179 0.15909,1.04149 0.27991,1.55072 0.0399,0.16852 0.0966,0.32993 0.14125,0.49653 0.12833,0.47745 0.2644,0.95252 0.43193,1.4155 0.0676,0.18703 0.15055,0.36638 0.22436,0.55035 0.17053,0.42541 0.34866,0.84742 0.55165,1.25745 0.0857,0.17267 0.18233,0.33837 0.27345,0.50773 0.26481,0.49331 0.55286,0.97324 0.86386,1.43919 0.0903,0.1349 0.1813,0.26913 0.27517,0.40135 0.0414,0.0585 0.0827,0.11688 0.12488,0.17484 0.34359,0.4725 0.71093,0.92819 1.10158,1.36555 0.1015,0.11362 0.19515,0.23342 0.29972,0.34451 0.49722,0.52814 1.02945,1.02634 1.59379,1.49258 0.0926,0.0765 0.18991,0.14795 0.28422,0.22264 0.58436,0.46282 1.19236,0.90199 1.84098,1.29191 z"
       style="display:inline;fill:#000000;fill-opacity:1;stroke:#000000;stroke-width:0.25;stroke-linecap:square;stroke-dasharray:none;stroke-opacity:1"
       id="path186-3-8-7-3-3" />
    <path
       d="m 995.3908,599.93676 c 5e-5,-0.4329 0.026,-0.85958 0.0689,-1.28114 0.005,-0.0432 0.008,-0.0862 0.0133,-0.12919 0.19828,-4.52483 1.30094,-9.05117 3.40849,-13.5797 -2.45658,1.47965 -4.51656,3.54233 -5.99317,6.00092 z"
       style="display:inline;fill:#000000;fill-opacity:1;stroke:#000000;stroke-width:0.25;stroke-linecap:square;stroke-dasharray:none;stroke-opacity:1"
       id="path187-9-9-6-2-4" />
    <path
       d="m 1016.9003,584.94673 c 2.1074,4.5283 3.2101,9.05469 3.4084,13.57927 0.052,0.46355 0.082,0.93372 0.082,1.41119 l 2.5025,-8.98954 c 0,-0.004 0,-0.006 0,-0.01 -0.1772,-0.2946 -0.367,-0.58043 -0.5607,-0.86343 -0.1259,-0.18383 -0.2481,-0.37036 -0.3807,-0.54906 -0.2207,-0.29745 -0.4572,-0.58177 -0.6959,-0.86428 -0.1248,-0.1477 -0.2425,-0.3014 -0.3721,-0.44487 -0.2,-0.22142 -0.4173,-0.42595 -0.6283,-0.6369 -0.2109,-0.21094 -0.4154,-0.42831 -0.6369,-0.62831 -0.146,-0.13186 -0.3022,-0.252 -0.4526,-0.37894 -0.28,-0.23631 -0.5619,-0.4704 -0.8565,-0.68904 -0.1787,-0.1326 -0.3652,-0.25481 -0.5491,-0.38067 -0.2802,-0.19182 -0.5628,-0.3799 -0.8544,-0.55552 z"
       style="display:inline;fill:#000000;fill-opacity:1;stroke:#000000;stroke-width:0.25;stroke-linecap:square;stroke-dasharray:none;stroke-opacity:1"
       id="path188-0-7-5-6-6" />
    <path
       d="m 1007.8909,582.43826 c -3.2921,0 -6.365,0.9187 -8.99515,2.49942 -0.005,0.003 -0.009,0.005 -0.0142,0.009 -2.10755,4.52855 -3.21021,9.05489 -3.40849,13.5797 0.009,-0.0846 0.0292,-0.16572 0.0405,-0.24977 0.0165,-0.12374 0.0333,-0.24647 0.0534,-0.36905 0.0273,-0.1672 0.0526,-0.33463 0.0866,-0.49954 0.0325,-0.15784 0.0745,-0.31162 0.11284,-0.46724 0.0483,-0.19613 0.0915,-0.39416 0.149,-0.58652 0.0163,-0.0545 0.0377,-0.10643 0.0546,-0.16064 0.0491,-0.1564 0.10476,-0.30923 0.15977,-0.46293 0.0828,-0.2315 0.17023,-0.46019 0.26613,-0.68515 0.0466,-0.10934 0.0899,-0.21998 0.13953,-0.32771 0.0308,-0.0667 0.0654,-0.13069 0.0973,-0.1968 0.0946,-0.19631 0.19614,-0.38791 0.30058,-0.57834 0.0806,-0.14692 0.1614,-0.29299 0.24762,-0.43624 0.0665,-0.11036 0.13183,-0.2209 0.20154,-0.32901 0.0504,-0.0782 0.10598,-0.15172 0.15804,-0.22867 0.0124,-0.0184 0.0253,-0.0363 0.038,-0.0546 0.0902,-0.13178 0.17754,-0.26507 0.27258,-0.39317 0.16372,-0.22063 0.33878,-0.43165 0.51634,-0.64079 0.004,-0.005 0.006,-0.009 0.0103,-0.0133 0.0486,-0.0571 0.0912,-0.11866 0.14081,-0.17482 0.0309,-0.0351 0.0623,-0.0692 0.0935,-0.10379 0.15136,-0.1677 0.31485,-0.32305 0.47499,-0.48232 0.13519,-0.13446 0.26531,-0.27357 0.40652,-0.40178 0.0565,-0.0513 0.11477,-0.10041 0.17226,-0.15073 0.0818,-0.0716 0.1695,-0.13547 0.2532,-0.20498 0.29419,-0.24435 0.59819,-0.47594 0.91429,-0.69289 0.076,-0.0521 0.148,-0.10799 0.2252,-0.15848 0.079,-0.0515 0.1604,-0.0975 0.2403,-0.14727 0.4467,-0.27823 0.9054,-0.53859 1.3875,-0.75966 1.5846,-0.72665 3.3473,-1.13214 5.2047,-1.13214 1.8573,10e-6 3.6201,0.4055 5.2046,1.13214 0.5682,0.26054 1.1094,0.56759 1.6279,0.90693 0.176,0.11522 0.3336,0.25268 0.5034,0.37638 0.3313,0.24146 0.6603,0.48407 0.9659,0.7562 0.376,0.33487 0.7373,0.68485 1.0705,1.06239 0.05,0.0562 0.092,0.11776 0.1409,0.17482 0.2932,0.34442 0.5658,0.70537 0.8208,1.08047 0.086,0.12619 0.1676,0.25383 0.2489,0.38327 0.227,0.36177 0.4355,0.7351 0.6253,1.12052 0.048,0.0967 0.1021,0.18871 0.1472,0.2868 0.2195,0.4765 0.4065,0.96968 0.5655,1.47623 0.04,0.12661 0.069,0.25667 0.105,0.38499 0.1126,0.40374 0.205,0.81466 0.2769,1.23378 0.026,0.15427 0.054,0.3072 0.074,0.46335 0.011,0.084 0.031,0.16524 0.041,0.24978 -0.1983,-4.52458 -1.301,-9.05097 -3.4085,-13.57928 0,-8.3e-4 0,-0.003 0,-0.005 0,-0.002 0,-0.004 -0.01,-0.005 -0.1978,-0.11887 -0.4001,-0.23076 -0.6029,-0.34192 -0.293,-0.16066 -0.5906,-0.31414 -0.8935,-0.4582 -0.2157,-0.10255 -0.4333,-0.20111 -0.6537,-0.29499 -0.311,-0.1324 -0.6276,-0.25358 -0.9474,-0.36819 -0.2217,-0.0794 -0.4431,-0.15933 -0.6688,-0.22996 -0.3374,-0.10557 -0.6817,-0.19413 -1.0275,-0.27949 -0.2196,-0.0542 -0.437,-0.11395 -0.6598,-0.15975 -0.385,-0.0792 -0.7779,-0.13563 -1.1717,-0.18906 -0.191,-0.0259 -0.3785,-0.0625 -0.5715,-0.0823 -0.5914,-0.0604 -1.1901,-0.096 -1.7974,-0.096 z"
       style="display:inline;fill:#000000;fill-opacity:1;stroke:#000000;stroke-width:0.25;stroke-linecap:square;stroke-dasharray:none;stroke-opacity:1"
       id="path189-5-5-0-9-97" />
    <path
       d="m 995.47305,631.35001 c 0.19832,4.52461 1.30109,9.05095 3.40849,13.57927 0.005,0.003 0.009,0.006 0.0143,0.009 2.63016,1.58071 5.70306,2.49941 8.99516,2.49941 0.6057,-2e-5 1.2033,-0.0355 1.7932,-0.0956 0.1985,-0.0202 0.3917,-0.0576 0.5882,-0.0844 0.3898,-0.0532 0.7789,-0.1089 1.1601,-0.18732 0.2221,-0.0457 0.4387,-0.10532 0.6576,-0.15935 0.3463,-0.0854 0.691,-0.1742 1.0288,-0.27991 0.2249,-0.0704 0.4454,-0.15001 0.6662,-0.2291 0.3223,-0.11543 0.6415,-0.2377 0.9547,-0.37121 0.2179,-0.0928 0.4332,-0.19022 0.6464,-0.29154 0.3038,-0.14439 0.6019,-0.29842 0.8957,-0.45949 0.203,-0.11126 0.4054,-0.22295 0.6034,-0.34193 0,-0.002 0,-0.004 0.01,-0.005 0,-8.3e-4 0,-0.003 0,-0.004 2.1076,-4.52848 3.2105,-9.05495 3.4089,-13.57971 -0.01,0.0844 -0.029,0.1659 -0.04,0.24977 -0.021,0.15615 -0.048,0.30911 -0.075,0.46338 -0.072,0.41908 -0.1643,0.83004 -0.2769,1.23377 -0.036,0.12831 -0.065,0.25837 -0.1051,0.38498 -0.1589,0.50653 -0.346,0.99975 -0.5654,1.47623 -0.045,0.0981 -0.1,0.1901 -0.1473,0.2868 -0.1898,0.3854 -0.3982,0.75877 -0.6253,1.12052 -0.081,0.12943 -0.1631,0.25708 -0.2489,0.38327 -0.255,0.37508 -0.5276,0.73607 -0.8208,1.08047 -0.049,0.0571 -0.091,0.11866 -0.1408,0.17483 -0.3327,0.37693 -0.693,0.72625 -1.0684,1.06067 -0.3099,0.27613 -0.6437,0.52239 -0.9801,0.76696 -0.1651,0.11999 -0.3182,0.25363 -0.4892,0.36561 -0.5192,0.33996 -1.061,0.64772 -1.63,0.90864 -1.5846,0.72666 -3.3473,1.13171 -5.2047,1.13171 -1.8573,0 -3.6201,-0.40505 -5.2047,-1.13171 -0.482,-0.22105 -0.9407,-0.48143 -1.3875,-0.75964 -0.081,-0.0503 -0.163,-0.097 -0.2424,-0.149 -0.075,-0.0492 -0.1456,-0.10378 -0.2196,-0.1546 -0.3173,-0.21762 -0.6225,-0.44985 -0.91772,-0.69505 -0.0837,-0.0695 -0.17137,-0.13334 -0.25321,-0.20499 -0.0583,-0.051 -0.11713,-0.10083 -0.17441,-0.15287 -0.14048,-0.12761 -0.26983,-0.26583 -0.40437,-0.39963 -0.15928,-0.15842 -0.32223,-0.31297 -0.47284,-0.47972 -0.0319,-0.0354 -0.064,-0.0706 -0.0956,-0.10638 -0.054,-0.0613 -0.10046,-0.12849 -0.15331,-0.19077 -0.17683,-0.20838 -0.3511,-0.41842 -0.51418,-0.63821 -0.0951,-0.12808 -0.18241,-0.26138 -0.27259,-0.39317 -0.0125,-0.0183 -0.0255,-0.0363 -0.0379,-0.0546 -0.0521,-0.0769 -0.10766,-0.15052 -0.15804,-0.22866 -0.0696,-0.10811 -0.13512,-0.21865 -0.20154,-0.32901 -0.0862,-0.14324 -0.16706,-0.28932 -0.24761,-0.43624 -0.10444,-0.19044 -0.20595,-0.38204 -0.30059,-0.57835 -0.0319,-0.0661 -0.0665,-0.13004 -0.0973,-0.19679 -0.0496,-0.10772 -0.0929,-0.21837 -0.13952,-0.32772 -0.0959,-0.22496 -0.18329,-0.45364 -0.26614,-0.68515 -0.055,-0.15368 -0.11067,-0.30652 -0.15977,-0.46293 -0.017,-0.0543 -0.0384,-0.1061 -0.0546,-0.16062 -0.0575,-0.19237 -0.10065,-0.39039 -0.149,-0.58654 -0.0383,-0.15561 -0.0804,-0.30938 -0.11284,-0.46724 -0.034,-0.16486 -0.0592,-0.33237 -0.0866,-0.49953 -0.02,-0.12244 -0.0369,-0.24502 -0.0534,-0.36862 -0.0113,-0.0842 -0.031,-0.16551 -0.0405,-0.25021 z"
       style="display:inline;fill:#000000;fill-opacity:1;stroke:#000000;stroke-width:0.25;stroke-linecap:square;stroke-dasharray:none;stroke-opacity:1"
       id="path190-2-5-4-0-4" />
    <path
       d="m 999.18299,615.12103 c -0.0989,-0.0568 -0.19729,-0.1144 -0.29499,-0.17313 -2.33036,4.99287 -3.49573,9.9879 -3.49677,14.98532 0.002,-5.04211 2.98886,-9.38635 7.28987,-11.36107 -0.8625,-1.32151 -1.9994,-2.52213 -3.49811,-3.45112 z"
       style="display:inline;fill:none;fill-opacity:1;stroke:#000000;stroke-width:0.25;stroke-linecap:square;stroke-dasharray:none;stroke-opacity:1"
       id="path361-2-2-5-0-94" />
    <path
       d="m 1025.3907,599.93806 c 0,0.53565 -0.025,1.06809 -0.073,1.59551 -0.01,0.0766 -0.021,0.15103 -0.029,0.22737 -0.012,0.11068 -0.025,0.22024 -0.039,0.33031 -0.016,0.13254 -0.042,0.2622 -0.061,0.39402 -0.052,0.35476 -0.1102,0.70669 -0.183,1.05422 -0.044,0.20831 -0.093,0.41369 -0.1438,0.61924 -0.01,0.0342 -0.015,0.0692 -0.024,0.10335 -0.019,0.0737 -0.032,0.14881 -0.052,0.22221 -0.072,0.26927 -0.1591,0.53184 -0.2438,0.79583 -0.063,0.19628 -0.1233,0.39288 -0.1929,0.5861 -0.07,0.19515 -0.1439,0.38817 -0.2209,0.58006 -0.04,0.099 -0.085,0.19466 -0.1266,0.29282 -0.044,0.10499 -0.089,0.20961 -0.1357,0.3135 -0.063,0.14024 -0.1165,0.28465 -0.1826,0.42289 -0.1412,0.29541 -0.3007,0.57962 -0.4577,0.86558 -0.059,0.10735 -0.1138,0.21603 -0.1749,0.32212 -0.062,0.10658 -0.1172,0.21654 -0.1809,0.32169 -0.066,0.10982 -0.143,0.21217 -0.2118,0.3204 -0.1738,0.27331 -0.3467,0.54727 -0.5349,0.81001 -0.015,0.0208 -0.027,0.0431 -0.042,0.0637 -0.039,0.0546 -0.084,0.10526 -0.1236,0.15933 -0.035,0.0474 -0.069,0.0951 -0.1046,0.14213 -0.1017,0.13446 -0.2133,0.26003 -0.3187,0.39143 -0.1392,0.17344 -0.2691,0.35444 -0.4147,0.52237 -0.063,0.0726 -0.1409,0.13211 -0.205,0.20369 -0.1351,0.15081 -0.262,0.3083 -0.4022,0.45434 -0.119,0.12396 -0.2519,0.23464 -0.3747,0.35528 -0.2938,0.28863 -0.5826,0.5826 -0.8961,0.85007 -0.019,0.016 -0.04,0.0298 -0.058,0.0457 -0.033,0.0282 -0.069,0.0529 -0.1029,0.0809 -0.048,0.0401 -0.099,0.0767 -0.1482,0.11626 -0.1127,0.0918 -0.2275,0.18043 -0.3427,0.26959 -0.5388,0.41733 -1.0938,0.81469 -1.68,1.16788 0.5869,0.35364 1.1423,0.75212 1.6817,1.17004 0.1126,0.0871 0.2252,0.17305 0.3354,0.26269 0.05,0.041 0.1031,0.0786 0.1529,0.12016 0.034,0.0283 0.071,0.0532 0.1042,0.0818 0.3368,0.28488 0.6495,0.59562 0.9638,0.90477 0.1189,0.11694 0.2477,0.22397 0.363,0.34408 0.1407,0.14648 0.268,0.30472 0.4035,0.45603 0.064,0.0718 0.1428,0.13133 0.2059,0.20412 0.1462,0.16868 0.2766,0.35073 0.4164,0.52495 0.105,0.13084 0.2161,0.25584 0.3174,0.38972 0.035,0.0465 0.069,0.0936 0.1033,0.1404 0.2488,0.33594 0.4798,0.68493 0.7046,1.03868 0.068,0.10636 0.1426,0.20693 0.208,0.3148 0.064,0.10603 0.1206,0.2168 0.1825,0.32427 0.06,0.10465 0.1143,0.21195 0.1723,0.31781 0.1576,0.28695 0.3177,0.57214 0.4595,0.86861 0.066,0.13768 0.1194,0.28152 0.1817,0.42116 0.046,0.10349 0.091,0.20767 0.1352,0.3122 0.042,0.0996 0.088,0.19674 0.1284,0.29715 0.077,0.1923 0.1509,0.38575 0.2213,0.58135 0.069,0.1907 0.1286,0.38464 0.1908,0.57835 0.085,0.26467 0.172,0.52797 0.2446,0.79797 0.02,0.0759 0.034,0.15369 0.053,0.22996 0.01,0.0323 0.014,0.0654 0.022,0.0977 0.051,0.20628 0.1009,0.41232 0.1447,0.62141 0.072,0.34652 0.1304,0.69748 0.1821,1.0512 0.019,0.13198 0.045,0.26175 0.062,0.39445 0.014,0.11064 0.027,0.22076 0.039,0.33202 0.01,0.0762 0.022,0.15047 0.029,0.22695 0.048,0.52657 0.073,1.05773 0.073,1.59249 z"
       style="display:inline;fill:#000000;fill-opacity:1;stroke:#000000;stroke-width:0.25;stroke-linecap:square;stroke-dasharray:none;stroke-opacity:1"
       id="path362-7-4-1-3-19" />
    <path
       d="m 990.3911,582.43826 v 17.4998 c 10e-6,-3.29013 0.91825,-6.36131 2.49727,-8.99041 v 0 c 0.60743,-1.01139 1.30378,-1.96341 2.09634,-2.82843 0.79984,-0.87294 1.68722,-1.66447 2.64798,-2.36075 0.40152,-0.29098 0.82268,-0.55506 1.24885,-0.81175 0.003,-0.005 0.005,-0.01 0.005,-0.0146 0.004,0.002 0.005,0.005 0.008,0.005 2.63006,-1.58071 5.70306,-2.49942 8.99516,-2.49942 z"
       style="display:inline;fill:none;fill-opacity:1;stroke:#000000;stroke-width:0.25;stroke-linecap:square;stroke-dasharray:none;stroke-opacity:1"
       id="path363-3-9-2-9-6" />
    <path
       d="m 1007.8909,582.43826 c 0.6074,0 1.206,0.0357 1.7975,0.096 0.193,0.0198 0.3803,0.0564 0.5714,0.0823 0.394,0.0535 0.7866,0.10982 1.1718,0.18905 0.223,0.0459 0.44,0.10552 0.6597,0.15977 0.346,0.0854 0.69,0.17386 1.0275,0.27948 0.226,0.0707 0.4469,0.15045 0.6688,0.22996 0.3201,0.1147 0.6362,0.23567 0.9474,0.36819 0.2206,0.0939 0.4379,0.19236 0.6537,0.29499 0.3033,0.14419 0.6002,0.29738 0.8936,0.4582 0.2032,0.11136 0.4056,0.2224 0.6037,0.3415 0,-0.002 0,-0.005 0.01,-0.005 0,0.005 0,0.009 0,0.0142 0,0 5e-4,4.4e-4 5e-4,4.4e-4 0.2917,0.17569 0.5741,0.36361 0.8544,0.55551 0.184,0.12602 0.3701,0.24792 0.549,0.38068 0.2948,0.21876 0.5764,0.45258 0.8566,0.68903 0.1505,0.12702 0.3065,0.24702 0.4526,0.37896 0.2191,0.19793 0.4211,0.41277 0.63,0.62142 0.2142,0.214 0.4343,0.42155 0.6373,0.64638 0.1312,0.14527 0.2505,0.30036 0.3768,0.45002 0.2365,0.28013 0.4707,0.56218 0.6895,0.85695 0.1322,0.17823 0.2538,0.3636 0.3794,0.54692 0.1936,0.28277 0.3835,0.56819 0.5607,0.86257 0,0.005 0,0.007 0.01,0.0112 v 4.4e-4 c 0.1171,0.19493 0.2262,0.39405 0.3359,0.59383 0.09,0.1632 0.1907,0.31948 0.2751,0.48577 0.069,0.13522 0.1226,0.27877 0.1878,0.416 10e-5,2.9e-4 3e-4,5.6e-4 4e-4,8.3e-4 0.102,0.21454 0.1995,0.43059 0.2929,0.64983 0.1326,0.31147 0.2538,0.62784 0.3686,0.94826 0.08,0.22193 0.1592,0.44284 0.2299,0.66879 0.1058,0.33796 0.1945,0.68236 0.2799,1.02879 0.054,0.21906 0.1137,0.43537 0.1594,0.65759 0.08,0.38676 0.1363,0.78087 0.1899,1.17649 0.026,0.18968 0.062,0.37561 0.081,0.56716 0.06,0.59031 0.096,1.18782 0.096,1.79403 v -17.49592 z"
       style="display:inline;fill:none;fill-opacity:1;stroke:#000000;stroke-width:0.25;stroke-linecap:square;stroke-dasharray:none;stroke-opacity:1"
       id="path364-7-4-3-5-7" />
    <path
       d="m 1007.8905,647.43818 c -3.2919,-8e-5 -6.3647,-0.91876 -8.99475,-2.49942 -0.004,0.002 -0.005,0.005 -0.008,0.005 -0.003,-0.005 -0.005,-0.01 -0.005,-0.0146 0,0 0,-4.5e-4 0,-4.5e-4 -0.93602,-0.5638 -1.8222,-1.20249 -2.63334,-1.92581 -1.31767,-1.175 -2.44588,-2.55294 -3.35984,-4.07469 v 0 c -1.57903,-2.62911 -2.49727,-5.70069 -2.49727,-8.99081 v 17.50022 z"
       style="display:inline;fill:none;fill-opacity:1;stroke:#000000;stroke-width:0.25;stroke-linecap:square;stroke-dasharray:none;stroke-opacity:1"
       id="path365-9-4-7-3-0" />
    <path
       d="m 1023.2293,591.54063 c -0.1094,-0.19934 -0.219,-0.39846 -0.3359,-0.59298 l -2.5024,8.98954 c 0,1.5e-4 0,7.2e-4 0,8.3e-4 0,8.4e-4 -4e-4,0.003 -4e-4,0.004 -8e-4,4.99798 -1.1662,9.99359 -3.4968,14.98703 0,0.003 0.01,0.005 0.013,0.008 0.05,-0.03 0.093,-0.0682 0.1421,-0.0986 0.6777,-0.41752 1.323,-0.88173 1.9353,-1.38492 0.2044,-0.16782 0.3893,-0.35431 0.5852,-0.53055 0.4393,-0.39541 0.8641,-0.8057 1.2614,-1.24324 0.305,-0.33629 0.6048,-0.67661 0.8819,-1.0344 0.068,-0.0875 0.1398,-0.17181 0.2058,-0.26053 0.066,-0.0883 0.1232,-0.18304 0.1874,-0.27259 0.3199,-0.44714 0.6243,-0.90471 0.9004,-1.37933 0.1051,-0.18018 0.1984,-0.36746 0.2972,-0.55165 0.234,-0.43762 0.4527,-0.8832 0.6489,-1.33971 0.086,-0.20043 0.1683,-0.40299 0.2472,-0.6072 0.1788,-0.46292 0.3345,-0.9351 0.4737,-1.41335 0.059,-0.20433 0.1228,-0.40675 0.1749,-0.61408 5e-4,-0.003 8e-4,-0.005 0,-0.006 0.1268,-0.50454 0.2218,-1.01824 0.3036,-1.53565 0.016,-0.10246 0.037,-0.20312 0.052,-0.30617 0.018,-0.12869 0.037,-0.25693 0.053,-0.38628 0.079,-0.67129 0.1326,-1.34852 0.1326,-2.0339 0,-8.4e-4 0,-0.003 0,-0.005 -10e-5,-0.60584 -0.035,-1.2032 -0.096,-1.79316 -0.02,-0.19424 -0.057,-0.38347 -0.083,-0.57577 -0.053,-0.3925 -0.1097,-0.7841 -0.1886,-1.16789 -0.046,-0.22405 -0.1061,-0.44276 -0.1606,-0.6636 -0.085,-0.34377 -0.1733,-0.68606 -0.2782,-1.02148 -0.071,-0.22794 -0.1519,-0.45184 -0.2321,-0.67567 -0.1139,-0.31737 -0.2339,-0.63148 -0.3652,-0.94008 -0.094,-0.22139 -0.1937,-0.44054 -0.2967,-0.65715 -0.144,-0.30269 -0.2973,-0.59992 -0.4578,-0.89272 -8e-4,-0.002 0,-0.005 0,-0.005 z"
       style="display:inline;fill:#000000;fill-opacity:1;stroke:#000000;stroke-width:0.25;stroke-linecap:square;stroke-dasharray:none;stroke-opacity:1"
       id="path366-0-7-2-1-9" />
    <path
       d="m 1013.1007,618.57215 c -1.5859,-0.72816 -3.3504,-1.13387 -5.2098,-1.13387 -1.8594,0 -3.6239,0.40571 -5.2098,1.13387 2.7099,4.15242 2.71,9.49884 2.71,11.3658 0,1.86609 -2e-4,7.21371 -2.7049,11.36839 1.5846,0.72666 3.3473,1.13171 5.2047,1.13171 1.8574,0 3.6201,-0.40505 5.2047,-1.13171 -2.7047,-4.15468 -2.7049,-9.5023 -2.7049,-11.36839 0,-1.86696 10e-5,-7.21338 2.71,-11.3658 z"
       style="display:inline;fill:none;fill-opacity:1;stroke:#000000;stroke-width:0.25;stroke-linecap:square;stroke-dasharray:none;stroke-opacity:1"
       id="path367-2-9-4-1-7" />
    <path
       d="m 1002.6862,588.57009 c 2.7047,4.15469 2.7049,9.50189 2.7049,11.36797 0,1.86695 -1e-4,7.21337 -2.71,11.3658 1.5859,0.72816 3.3504,1.1343 5.2098,1.1343 1.8594,0 3.6239,-0.40614 5.2098,-1.1343 -2.7099,-4.15243 -2.71,-9.49885 -2.71,-11.3658 0,-1.86608 2e-4,-7.21328 2.7049,-11.36797 -1.5846,-0.72663 -3.3474,-1.13213 -5.2047,-1.13214 -1.8574,0 -3.6201,0.40549 -5.2047,1.13214 z"
       style="display:inline;fill:none;fill-opacity:1;stroke:#000000;stroke-width:0.25;stroke-linecap:square;stroke-dasharray:none;stroke-opacity:1"
       id="path368-3-5-1-2-3" />
    <path
       d="m 995.39123,599.94279 c 8.4e-4,4.99746 1.16639,9.99282 3.49677,14.98573 0.0977,-0.0587 0.19606,-0.11667 0.29499,-0.17354 2.56451,-1.47399 5.53771,-2.31682 8.70791,-2.31682 -1.8594,0 -3.6239,-0.40614 -5.2098,-1.1343 -4.30101,-1.97473 -7.28796,-6.31896 -7.28987,-11.36107 z"
       style="display:inline;fill:none;fill-opacity:1;stroke:#000000;stroke-width:0.25;stroke-linecap:square;stroke-dasharray:none;stroke-opacity:1"
       id="path369-9-5-8-6-1" />
    <path
       d="m 1020.3906,599.9415 c 0,5.04266 -2.9885,9.38746 -7.2899,11.36236 -1.5859,0.72816 -3.3504,1.13431 -5.2098,1.13431 3.1702,0 6.1434,0.84283 8.7079,2.31683 0.099,0.0568 0.1973,0.11482 0.295,0.17354 2.3306,-4.99343 3.496,-9.98906 3.4968,-14.98704 z"
       style="display:inline;fill:none;fill-opacity:1;stroke:#000000;stroke-width:0.25;stroke-linecap:square;stroke-dasharray:none;stroke-opacity:1"
       id="path370-9-6-2-9-5" />
    <path
       d="m 1007.8909,612.43817 c -3.1702,0 -6.1434,0.84282 -8.70791,2.31682 -0.0929,0.0576 -0.18759,0.11417 -0.28336,0.16967 -0.007,0.005 -0.0148,0.009 -0.0224,0.0133 0.007,0.005 0.0148,0.009 0.0224,0.0138 0.0958,0.0555 0.19041,0.11162 0.28336,0.16923 1.49871,0.92899 2.63561,2.12962 3.49811,3.45115 1.5859,-0.72817 3.3504,-1.13388 5.2098,-1.13388 1.8594,0 3.6239,0.40571 5.2098,1.13388 0.8625,-1.32153 1.9994,-2.52216 3.4981,-3.45115 0.098,-0.0608 0.1977,-0.12027 0.2989,-0.17872 0,-0.002 0,-0.003 0.01,-0.005 0,-0.002 0,-0.003 -0.01,-0.005 -0.1012,-0.0584 -0.2008,-0.11834 -0.2989,-0.17913 -2.5645,-1.47379 -5.5377,-2.31663 -8.7079,-2.31663 z"
       style="display:inline;fill:none;fill-opacity:1;stroke:#000000;stroke-width:0.25;stroke-linecap:square;stroke-dasharray:none;stroke-opacity:1"
       id="path371-7-1-6-1-6" />
  </g>
</svg>
